<svg xmlns="http://www.w3.org/2000/svg" xmlns:xlink="http://www.w3.org/1999/xlink" width="500" zoomAndPan="magnify" viewBox="0 0 375 374.999991" height="500" preserveAspectRatio="xMidYMid meet" version="1.0"><defs><g/><clipPath id="dc43833b72"><path d="M 112.5 90 L 188 90 L 188 139.144531 L 112.5 139.144531 Z M 112.5 90 " clip-rule="nonzero"/></clipPath><clipPath id="1f9c9e4b6a"><path d="M 148 76.894531 L 262.5 76.894531 L 262.5 139.144531 L 148 139.144531 Z M 148 76.894531 " clip-rule="nonzero"/></clipPath><clipPath id="668f55c22d"><path d="M 187 139.027344 L 262.5 139.027344 L 262.5 188 L 187 188 Z M 187 139.027344 " clip-rule="nonzero"/></clipPath><clipPath id="8f6f3ba4e1"><path d="M 112.5 139.027344 L 227 139.027344 L 227 201.148438 L 112.5 201.148438 Z M 112.5 139.027344 " clip-rule="nonzero"/></clipPath></defs><rect x="-37.5" width="450" fill="#ffffff" y="-37.499999" height="449.999989" fill-opacity="1"/><rect x="-37.5" width="450" fill="#000000" y="-37.499999" height="449.999989" fill-opacity="1"/><g clip-path="url(#dc43833b72)"><path fill="#109e5a" d="M 112.5 139.113281 L 165.179688 138.917969 L 184.085938 120.148438 L 187.527344 116.734375 L 187.605469 116.65625 L 161.484375 90.480469 L 161.40625 90.558594 L 157.964844 93.972656 L 112.5 139.113281 " fill-opacity="1" fill-rule="nonzero"/></g><g clip-path="url(#1f9c9e4b6a)"><path fill="#10c6b4" d="M 148.609375 77.578125 L 209.820312 138.917969 L 262.5 139.113281 L 200.445312 76.929688 L 148.609375 77.578125 " fill-opacity="1" fill-rule="nonzero"/></g><path fill="#0d824a" d="M 184.085938 120.148438 L 187.527344 116.734375 L 161.40625 90.558594 L 157.964844 93.972656 L 184.085938 120.148438 " fill-opacity="1" fill-rule="nonzero"/><g clip-path="url(#668f55c22d)"><path fill="#109e5a" d="M 262.5 138.933594 L 209.820312 139.128906 L 190.914062 157.898438 L 187.472656 161.3125 L 187.394531 161.390625 L 213.515625 187.566406 L 213.59375 187.484375 L 217.035156 184.074219 L 262.5 138.933594 " fill-opacity="1" fill-rule="nonzero"/></g><g clip-path="url(#8f6f3ba4e1)"><path fill="#10c6b4" d="M 226.390625 200.46875 L 165.179688 139.128906 L 112.5 138.933594 L 174.554688 201.117188 L 226.390625 200.46875 " fill-opacity="1" fill-rule="nonzero"/></g><path fill="#0d824a" d="M 190.914062 157.898438 L 187.472656 161.3125 L 213.59375 187.484375 L 217.035156 184.074219 L 190.914062 157.898438 " fill-opacity="1" fill-rule="nonzero"/><g fill="#ffffff" fill-opacity="1"><g transform="translate(103.926253, 251.546585)"><g><path d="M 1.4375 -19.796875 L 8.515625 -19.796875 C 10.421875 -19.796875 11.972656 -19.285156 13.171875 -18.265625 C 14.367188 -17.253906 14.96875 -15.804688 14.96875 -13.921875 C 14.96875 -12.460938 14.601562 -11.238281 13.875 -10.25 C 13.15625 -9.269531 12.171875 -8.582031 10.921875 -8.1875 L 17.734375 0 L 12 0 L 5.953125 -7.828125 L 5.953125 0 L 1.4375 0 Z M 5.953125 -11.015625 L 6.484375 -11.015625 C 6.898438 -11.015625 7.25 -11.019531 7.53125 -11.03125 C 7.820312 -11.050781 8.148438 -11.109375 8.515625 -11.203125 C 8.890625 -11.304688 9.1875 -11.441406 9.40625 -11.609375 C 9.632812 -11.785156 9.828125 -12.039062 9.984375 -12.375 C 10.140625 -12.71875 10.21875 -13.128906 10.21875 -13.609375 C 10.21875 -14.085938 10.140625 -14.492188 9.984375 -14.828125 C 9.828125 -15.171875 9.632812 -15.425781 9.40625 -15.59375 C 9.1875 -15.769531 8.890625 -15.90625 8.515625 -16 C 8.148438 -16.101562 7.820312 -16.160156 7.53125 -16.171875 C 7.25 -16.191406 6.898438 -16.203125 6.484375 -16.203125 L 5.953125 -16.203125 Z M 5.953125 -11.015625 "/></g></g></g><g fill="#ffffff" fill-opacity="1"><g transform="translate(121.110288, 251.546585)"><g><path d="M 11.5 -19.796875 L 19.484375 0 L 14.640625 0 L 13.171875 -3.953125 L 5.640625 -3.953125 L 4.171875 0 L -0.671875 0 L 7.3125 -19.796875 Z M 11.640625 -7.921875 L 9.4375 -13.6875 L 9.390625 -13.6875 L 7.171875 -7.921875 Z M 11.640625 -7.921875 "/></g></g></g><g fill="#ffffff" fill-opacity="1"><g transform="translate(139.92633, 251.546585)"><g><path d="M 12.890625 -19.796875 L 12.890625 -15.84375 L 5.953125 -15.84375 L 5.953125 -11.90625 L 12.359375 -11.90625 L 12.359375 -7.9375 L 5.953125 -7.9375 L 5.953125 0 L 1.4375 0 L 1.4375 -19.796875 Z M 12.890625 -19.796875 "/></g></g></g><g fill="#ffffff" fill-opacity="1"><g transform="translate(153.534361, 251.546585)"><g><path d="M 5.953125 -19.796875 L 5.953125 0 L 1.4375 0 L 1.4375 -19.796875 Z M 5.953125 -19.796875 "/></g></g></g><g fill="#ffffff" fill-opacity="1"><g transform="translate(160.926374, 251.546585)"><g><path d="M 1.4375 -19.796875 L 7.171875 -19.796875 C 9.921875 -19.796875 12.269531 -18.851562 14.21875 -16.96875 C 16.175781 -15.09375 17.15625 -12.738281 17.15625 -9.90625 C 17.15625 -7.0625 16.179688 -4.695312 14.234375 -2.8125 C 12.296875 -0.9375 9.941406 0 7.171875 0 L 1.4375 0 Z M 5.953125 -4.03125 L 6.640625 -4.03125 C 8.296875 -4.03125 9.644531 -4.585938 10.6875 -5.703125 C 11.738281 -6.816406 12.269531 -8.210938 12.28125 -9.890625 C 12.28125 -11.566406 11.753906 -12.960938 10.703125 -14.078125 C 9.660156 -15.203125 8.304688 -15.765625 6.640625 -15.765625 L 5.953125 -15.765625 Z M 5.953125 -4.03125 "/></g></g></g><g fill="#ffffff" fill-opacity="1"><g transform="translate(178.638405, 251.546585)"><g><path d="M 16.65625 -19.796875 L 16.65625 -7.03125 C 16.65625 -4.601562 16 -2.765625 14.6875 -1.515625 C 13.375 -0.265625 11.453125 0.359375 8.921875 0.359375 C 6.398438 0.359375 4.484375 -0.265625 3.171875 -1.515625 C 1.859375 -2.765625 1.203125 -4.601562 1.203125 -7.03125 L 1.203125 -19.796875 L 5.71875 -19.796875 L 5.71875 -8.359375 C 5.71875 -6.753906 5.96875 -5.640625 6.46875 -5.015625 C 6.96875 -4.390625 7.785156 -4.078125 8.921875 -4.078125 C 10.054688 -4.078125 10.875 -4.390625 11.375 -5.015625 C 11.882812 -5.640625 12.140625 -6.753906 12.140625 -8.359375 L 12.140625 -19.796875 Z M 16.65625 -19.796875 "/></g></g></g><g fill="#ffffff" fill-opacity="1"><g transform="translate(196.494437, 251.546585)"><g><path d="M 5.953125 -19.796875 L 5.953125 -3.953125 L 12.765625 -3.953125 L 12.765625 0 L 1.4375 0 L 1.4375 -19.796875 Z M 5.953125 -19.796875 "/></g></g></g><g fill="#ffffff" fill-opacity="1"><g transform="translate(210.05446, 251.546585)"><g/></g></g><g fill="#ffffff" fill-opacity="1"><g transform="translate(216.606477, 251.546585)"><g><path d="M 5.953125 -7.9375 L 5.953125 0 L 1.4375 0 L 1.4375 -19.796875 L 5.953125 -19.796875 L 5.953125 -11.90625 L 12.34375 -11.90625 L 12.34375 -19.796875 L 16.84375 -19.796875 L 16.84375 0 L 12.34375 0 L 12.34375 -7.9375 Z M 5.953125 -7.9375 "/></g></g></g><g fill="#ffffff" fill-opacity="1"><g transform="translate(234.894512, 251.546585)"><g><path d="M 11.5 -19.796875 L 19.484375 0 L 14.640625 0 L 13.171875 -3.953125 L 5.640625 -3.953125 L 4.171875 0 L -0.671875 0 L 7.3125 -19.796875 Z M 11.640625 -7.921875 L 9.4375 -13.6875 L 9.390625 -13.6875 L 7.171875 -7.921875 Z M 11.640625 -7.921875 "/></g></g></g><g fill="#ffffff" fill-opacity="1"><g transform="translate(253.710554, 251.546585)"><g><path d="M 8.734375 -20.15625 C 9.804688 -20.15625 10.851562 -20 11.875 -19.6875 C 12.90625 -19.375 13.664062 -19.066406 14.15625 -18.765625 L 14.875 -18.28125 L 13.0625 -14.6875 C 12.914062 -14.78125 12.710938 -14.898438 12.453125 -15.046875 C 12.203125 -15.203125 11.722656 -15.410156 11.015625 -15.671875 C 10.304688 -15.929688 9.648438 -16.0625 9.046875 -16.0625 C 8.296875 -16.0625 7.71875 -15.898438 7.3125 -15.578125 C 6.90625 -15.253906 6.703125 -14.820312 6.703125 -14.28125 C 6.703125 -14.007812 6.796875 -13.753906 6.984375 -13.515625 C 7.171875 -13.285156 7.492188 -13.039062 7.953125 -12.78125 C 8.421875 -12.519531 8.832031 -12.304688 9.1875 -12.140625 C 9.539062 -11.984375 10.085938 -11.742188 10.828125 -11.421875 C 12.109375 -10.878906 13.195312 -10.140625 14.09375 -9.203125 C 15 -8.265625 15.453125 -7.207031 15.453125 -6.03125 C 15.453125 -4.882812 15.25 -3.890625 14.84375 -3.046875 C 14.4375 -2.203125 13.875 -1.539062 13.15625 -1.0625 C 12.445312 -0.582031 11.660156 -0.226562 10.796875 0 C 9.929688 0.238281 8.992188 0.359375 7.984375 0.359375 C 7.128906 0.359375 6.285156 0.269531 5.453125 0.09375 C 4.617188 -0.0820312 3.921875 -0.300781 3.359375 -0.5625 C 2.796875 -0.820312 2.289062 -1.082031 1.84375 -1.34375 C 1.394531 -1.601562 1.066406 -1.816406 0.859375 -1.984375 L 0.546875 -2.25 L 2.8125 -6.046875 C 3 -5.890625 3.257812 -5.6875 3.59375 -5.4375 C 3.9375 -5.1875 4.535156 -4.851562 5.390625 -4.4375 C 6.242188 -4.019531 7 -3.8125 7.65625 -3.8125 C 9.5625 -3.8125 10.515625 -4.460938 10.515625 -5.765625 C 10.515625 -6.035156 10.445312 -6.285156 10.3125 -6.515625 C 10.175781 -6.742188 9.9375 -6.972656 9.59375 -7.203125 C 9.25 -7.441406 8.941406 -7.628906 8.671875 -7.765625 C 8.410156 -7.898438 7.976562 -8.109375 7.375 -8.390625 C 6.78125 -8.671875 6.335938 -8.882812 6.046875 -9.03125 C 4.847656 -9.613281 3.921875 -10.347656 3.265625 -11.234375 C 2.609375 -12.128906 2.28125 -13.085938 2.28125 -14.109375 C 2.28125 -15.890625 2.9375 -17.34375 4.25 -18.46875 C 5.5625 -19.59375 7.054688 -20.15625 8.734375 -20.15625 Z M 8.734375 -20.15625 "/></g></g></g><g fill="#ffffff" fill-opacity="1"><g transform="translate(269.838586, 251.546585)"><g><path d="M 5.953125 -19.796875 L 5.953125 0 L 1.4375 0 L 1.4375 -19.796875 Z M 5.953125 -19.796875 "/></g></g></g><g fill="#ffffff" fill-opacity="1"><g transform="translate(277.230599, 251.546585)"><g><path d="M 1.4375 -19.796875 L 7.578125 -19.796875 C 9.441406 -19.796875 10.925781 -19.398438 12.03125 -18.609375 C 13.132812 -17.816406 13.6875 -16.535156 13.6875 -14.765625 C 13.6875 -12.773438 12.859375 -11.359375 11.203125 -10.515625 C 14.023438 -10.015625 15.4375 -8.347656 15.4375 -5.515625 C 15.4375 -3.859375 14.859375 -2.523438 13.703125 -1.515625 C 12.546875 -0.503906 10.960938 0 8.953125 0 L 1.4375 0 Z M 5.953125 -12.046875 L 6.3125 -12.046875 C 7.320312 -12.046875 8.070312 -12.222656 8.5625 -12.578125 C 9.0625 -12.929688 9.3125 -13.503906 9.3125 -14.296875 C 9.3125 -15.640625 8.3125 -16.3125 6.3125 -16.3125 L 5.953125 -16.3125 Z M 5.953125 -3.484375 L 7.375 -3.484375 C 9.582031 -3.484375 10.6875 -4.21875 10.6875 -5.6875 C 10.6875 -6.570312 10.410156 -7.203125 9.859375 -7.578125 C 9.304688 -7.960938 8.476562 -8.15625 7.375 -8.15625 L 5.953125 -8.15625 Z M 5.953125 -3.484375 "/></g></g></g></svg>